<svg version="1.1" id="Layer_1" xmlns="http://www.w3.org/2000/svg" xmlns:xlink="http://www.w3.org/1999/xlink" x="0px" y="0px"
	 width="100%" viewBox="0 0 608 512" enable-background="new 0 0 608 512" xml:space="preserve">
<path fill="#000000" opacity="1.000000" stroke="none" 
	d="
M535.536011,226.139709 
	C548.226135,231.148270 546.422058,245.703644 538.352661,253.063309 
	C534.377441,256.688934 529.428650,258.243286 524.116943,258.261292 
	C503.623444,258.330841 483.129181,258.354889 462.635895,258.256256 
	C455.606018,258.222412 449.741425,255.737305 445.643188,249.554245 
	C438.381897,238.598999 431.033661,227.695572 423.456299,216.957840 
	C419.154846,210.862366 417.002258,211.278778 413.190643,217.823120 
	C402.295135,236.530197 391.333130,255.198883 380.315857,273.834534 
	C376.589935,280.136932 376.848877,280.882263 382.787384,284.853363 
	C399.671265,296.143646 416.435638,307.612762 433.236267,319.027344 
	C442.763550,325.500336 447.305206,334.669128 446.040497,345.969971 
	C444.636688,358.513855 437.463501,367.128082 425.343597,370.989594 
	C397.126831,379.979675 368.862122,388.821320 340.569092,397.568756 
	C332.729736,399.992523 326.589111,397.888885 322.919159,392.208862 
	C319.325592,386.647064 319.733307,379.311798 323.882599,374.011810 
	C326.255310,370.981110 329.779999,369.624054 333.032288,368.103790 
	C349.763184,360.283051 366.340179,352.101562 383.648438,345.575562 
	C385.417999,344.908386 387.223206,344.139160 387.354431,342.004608 
	C387.487823,339.834534 385.635590,338.900238 384.047638,338.012451 
	C368.936737,329.564026 353.653961,321.408722 338.747040,312.615692 
	C331.043152,308.071411 322.448425,304.955994 315.858032,298.519165 
	C301.378601,284.377136 298.292175,260.339844 308.723419,242.898422 
	C318.032440,227.333359 327.361420,211.775436 336.341339,196.020416 
	C340.895660,188.029953 339.012939,185.348404 329.709534,185.320908 
	C321.878632,185.297760 314.043488,185.461563 306.218597,185.242966 
	C302.834595,185.148422 300.606201,186.368301 298.650238,189.006119 
	C285.857086,206.258957 272.957703,223.433029 260.153259,240.677551 
	C258.324677,243.140198 256.139984,245.128922 253.575729,246.715408 
	C247.703491,250.348526 240.119995,250.374832 235.684357,246.850906 
	C231.428360,243.469696 229.965286,237.097122 232.149796,230.343338 
	C232.856430,228.158707 233.859711,225.949081 235.218750,224.115067 
	C249.494965,204.849258 263.746735,185.562805 278.274353,166.486984 
	C285.026947,157.620300 293.628784,152.248260 305.545380,152.601776 
	C322.173431,153.095047 338.827087,152.818420 355.468964,152.724579 
	C372.619629,152.627884 389.764832,153.029312 406.920837,151.974075 
	C423.599518,150.948196 436.203003,157.160080 444.620056,172.700974 
	C453.480164,189.059921 464.084412,204.472412 473.868530,220.334290 
	C475.820007,223.497955 478.770081,223.728149 482.044189,224.038452 
	C495.187408,225.284073 508.301605,224.212814 521.427490,223.899567 
	C526.119446,223.787582 530.703674,224.564667 535.536011,226.139709 
z"/>
<path fill="#000000" opacity="1.000000" stroke="none" 
	d="
M238.657349,430.630005 
	C231.189865,440.250671 223.932831,449.581787 216.703247,458.934174 
	C212.744843,464.054840 207.964249,467.988129 201.110245,466.941284 
	C190.002029,465.244629 185.425674,452.778625 191.951385,442.448792 
	C206.613998,419.238678 221.299057,396.042542 236.051392,372.889374 
	C252.418686,347.201538 268.882996,321.575531 285.256409,295.891602 
	C286.226776,294.369476 286.834564,292.598114 287.482086,290.893738 
	C288.046112,289.409149 288.736664,288.096527 290.485291,287.951172 
	C292.293732,287.800812 293.143585,289.156403 293.829865,290.502045 
	C297.101532,296.916840 300.982178,302.872070 306.238251,307.882477 
	C310.117462,311.580414 314.106232,314.955475 319.304016,316.819214 
	C323.806244,318.433563 324.340912,320.555817 321.410034,324.338989 
	C306.217560,343.949127 290.946533,363.498413 275.703278,383.069244 
	C263.428345,398.829071 251.153885,414.589294 238.657349,430.630005 
z"/>
<path fill="#000000" opacity="1.000000" stroke="none" 
	d="
M469.921204,104.502213 
	C466.051849,129.004181 445.145233,143.508041 422.286011,137.211044 
	C403.401398,132.008896 395.022308,116.066582 396.955017,98.667999 
	C399.173492,78.696899 411.130310,66.696945 431.027008,64.986305 
	C450.545776,63.308155 464.472473,73.244743 469.240814,93.193077 
	C470.082794,96.715469 470.823914,100.371696 469.921204,104.502213 
z"/>
<path fill="#000000" opacity="1.000000" stroke="none" 
	d="
M158.997589,364.887085 
	C165.300385,365.188080 171.147324,364.191071 176.917572,365.641052 
	C183.345566,367.256348 185.560150,369.604889 185.317398,374.867249 
	C185.083328,379.941284 180.713470,384.575897 175.468353,385.219208 
	C174.151947,385.380646 172.805679,385.324158 171.473129,385.324402 
	C142.307541,385.329315 113.141930,385.339203 83.976349,385.321106 
	C75.620445,385.315918 72.713318,382.947937 72.643478,376.248016 
	C72.564812,368.701447 76.084808,364.977844 84.001167,364.942780 
	C108.833099,364.832855 133.665771,364.893311 158.997589,364.887085 
z"/>
<path fill="#000000" opacity="1.000000" stroke="none" 
	d="
M182.999908,299.367065 
	C172.010147,299.363220 161.520111,299.403351 151.030731,299.339508 
	C143.605621,299.294342 141.615540,297.195038 141.634811,289.741333 
	C141.654755,282.028839 143.838058,279.667633 151.172623,279.662231 
	C181.975861,279.639526 212.779114,279.641846 243.582367,279.655762 
	C250.822021,279.659027 253.988388,282.336914 254.234833,288.533234 
	C254.463104,294.273315 249.689896,299.268036 243.441071,299.303619 
	C223.461212,299.417480 203.480377,299.358734 182.999908,299.367065 
z"/>
<path fill="#000000" opacity="1.000000" stroke="none" 
	d="
M211.328308,340.169769 
	C179.284225,340.282684 147.669189,340.345093 116.054253,340.312500 
	C109.723190,340.305969 106.873795,337.290100 106.846024,331.134399 
	C106.815781,324.429962 109.938934,320.732422 116.147736,320.718719 
	C147.597214,320.649323 179.046921,320.697601 210.496521,320.673798 
	C215.070862,320.670319 218.269379,322.492767 219.209824,327.152832 
	C220.421265,333.155670 217.967804,337.264191 211.328308,340.169769 
z"/>
</svg>